<svg xmlns="http://www.w3.org/2000/svg" width="176" height="72" style="shape-rendering:geometricPrecision;text-rendering:geometricPrecision;image-rendering:optimizeQuality;fill-rule:evenodd;clip-rule:evenodd"><path style="opacity:1" fill="#fefffe" d="M82.5 4.5c1.811 8.946 2.645 18.28 2.5 28l8-8c.311-1.242-.189-2.242-1.5-3a3.646 3.646 0 0 1 1-1.5c3.515.706 7.015.539 10.5-.5a4.458 4.458 0 0 1 1.5 2c-5.526 2.272-10.192 5.772-14 10.5a6.975 6.975 0 0 1 3.5 2.5l7 13c1.796 1.267 3.629 1.267 5.5 0 1.225 2.343.559 4.177-2 5.5-1.544 1.187-3.211 1.52-5 1A122.088 122.088 0 0 1 90 38.5c-1.396-2.027-3.062-2.36-5-1-.667 4-.667 8 0 12 1.61.647 3.11 1.48 4.5 2.5-4.472 1.437-9.139 1.937-14 1.5v-3h3a261.754 261.754 0 0 0 .5-38c-.588-2.363-2.088-3.363-4.5-3v-3c3.053.39 5.72-.277 8-2zM106.5 5.5c.06-.543.393-.876 1-1 1.809 1.988 3.976 3.322 6.5 4a97.062 97.062 0 0 0 7.5-2.5c-2.177 1.497-3.51 3.497-4 6 1.3 2.574 2.467 5.074 3.5 7.5-4.415-5.226-8.749-5.226-13 0 .687-2.551 1.854-5.051 3.5-7.5-1.082-2.687-2.749-4.854-5-6.5zM9.5 19.5c1.545.73 2.378 2.063 2.5 4 3.49-3.547 7.657-4.714 12.5-3.5 1.759 1.008 2.926 2.508 3.5 4.5l6.5-4.5c4.487-1.378 7.987-.212 10.5 3.5l1 25c1.049 1.607 2.549 2.273 4.5 2v3a43.123 43.123 0 0 1-13-1 10.76 10.76 0 0 1 2.5-3c.667-7.333.667-14.667 0-22-1.721-3.626-4.221-4.46-7.5-2.5a11.529 11.529 0 0 0-3.5 4.5 90.496 90.496 0 0 0 0 19c1.049 1.607 2.549 2.273 4.5 2v3a43.123 43.123 0 0 1-13-1 10.76 10.76 0 0 1 2.5-3c.9-8.079.567-16.079-1-24-4.427-2.293-7.76-.96-10 4a100.245 100.245 0 0 0 0 20c1.356.88 2.856 1.214 4.5 1v3a49.874 49.874 0 0 1-14-1 32.05 32.05 0 0 0 3.5-4 121.25 121.25 0 0 0 0-22c-.71-1.473-1.876-2.14-3.5-2v-3c2.728.33 5.061-.337 7-2zM61.5 19.5h12c-1.333 3.333-1.333 6.667 0 10-2.55-.06-4.05-1.394-4.5-4-3.263-3.724-6.596-3.724-10 0-3.333 6.667-3.333 13.333 0 20 5.018 5.313 9.852 4.98 14.5-1l1 2c-3.698 7.178-9.365 9.345-17 6.5-2.967-2.1-4.8-4.934-5.5-8.5-1.08-6.554-.414-12.888 2-19 2.114-2.62 4.614-4.62 7.5-6zM114.5 19.5h3c-.166 10.006 0 20.006.5 30a20.515 20.515 0 0 1 4.5 2.5c-4.472 1.437-9.139 1.937-14 1.5v-3h3a87.22 87.22 0 0 0 0-26h-3v-3c2.51.447 4.51-.22 6-2zM131.5 19.5c1.175-.219 2.175.114 3 1-1.09 1.109-1.09 2.109 0 3 5.573-5.303 11.073-5.303 16.5 0a60.289 60.289 0 0 1 6.5-3.5c4.172-1.29 7.339-.124 9.5 3.5l1 24c.589 2.363 2.089 3.363 4.5 3v3a43.123 43.123 0 0 1-13-1c.333-1 1-1.667 2-2a88.739 88.739 0 0 0 .5-23c-2.154-4.498-4.987-4.998-8.5-1.5a6.977 6.977 0 0 0-2.5 3.5 90.455 90.455 0 0 0 0 19c1.049 1.607 2.549 2.273 4.5 2v3a43.123 43.123 0 0 1-13-1 10.756 10.756 0 0 1 2.5-3 121.19 121.19 0 0 0 0-22c-2.154-4.498-4.987-4.998-8.5-1.5a6.977 6.977 0 0 0-2.5 3.5 90.455 90.455 0 0 0 0 19c1.049 1.607 2.549 2.273 4.5 2v3a49.874 49.874 0 0 1-14-1 32.05 32.05 0 0 0 3.5-4c.667-7.667.667-15.333 0-23a26.596 26.596 0 0 1-3.5-2 65.196 65.196 0 0 1 7-4zM1.5 62.5c5.406-.765 7.406 1.569 6 7h-6v-7zm2 2c2.47.86 2.637 2.194.5 4a8.434 8.434 0 0 1-.5-4zM9.5 62.5c1.478-.262 2.811.071 4 1a4.452 4.452 0 0 1-2 1.5c2.667 1 2.667 2 0 3l2 1a8.434 8.434 0 0 1-4 .5v-7zM15.5 62.5c1.644-.214 3.144.12 4.5 1-.423 1.887-.256 3.887.5 6-1.788.285-3.455-.048-5-1 .42-1.826.42-3.826 0-6zM21.5 62.5c1.225.652 1.892 1.819 2 3.5l-1 3.5a13.117 13.117 0 0 1-1-7zM26.5 62.5c5.163-.393 6.83 1.773 5 6.5-5.759 1.139-7.426-1.028-5-6.5zm2 5c-1.276-.886-1.276-1.886 0-3 .587.733.587 1.733 0 3zM34.5 62.5c1.574.437 2.741 1.437 3.5 3l1-3c.814 2.402.647 4.735-.5 7-1.299-.59-2.132-1.59-2.5-3l-1 3a24.939 24.939 0 0 1-.5-7zM46.5 62.5c2.75.118 4.75 1.451 6 4-1.14.925-1.14 1.759 0 2.5-6.297 2.317-8.297.15-6-6.5zM57.5 62.5c5.406-.765 7.406 1.569 6 7h-6v-7zm2 2c2.47.86 2.637 2.194.5 4a8.434 8.434 0 0 1-.5-4zM65.5 62.5c1.478-.262 2.811.071 4 1a4.452 4.452 0 0 1-2 1.5c2.667 1 2.667 2 0 3l2 1a8.434 8.434 0 0 1-4 .5v-7zM71.5 62.5c1.359.507 2.359 1.507 3 3l2-3c.883 2.238.55 4.405-1 6.5-.95.617-1.782.45-2.5-.5a10.1 10.1 0 0 1-1.5-6zM79.5 62.5c4.47.172 4.804 1.006 1 2.5 4 1 4 2 0 3 3.726 1.043 3.393 1.543-1 1.5v-7zM84.5 62.5a61.934 61.934 0 0 1 4 6.5 8.434 8.434 0 0 1-4 .5v-7zM91.5 62.5c1.644-.214 3.144.12 4.5 1 .496 1.973.662 3.973.5 6-6.948 1.074-8.615-1.26-5-7zm1 2c2.47.86 2.637 2.194.5 4-1.768-1.182-1.935-2.515-.5-4zM98.5 62.5c6.326 1.027 6.66 3.36 1 7a13.117 13.117 0 0 1-1-7zM105.5 62.5c1.212.73 2.212 1.73 3 3a9.433 9.433 0 0 1 3-3c1.333 2.333 1.333 4.667 0 7-1-1.333-2-1.333-3 0-1.041-2.491-1.874-2.491-2.5 0a24.935 24.935 0 0 1-.5-7zM114.5 62.5c1.478-.262 2.811.071 4 1a4.451 4.451 0 0 1-2 1.5c2.667 1 2.667 2 0 3l2 1a8.435 8.435 0 0 1-4 .5v-7zM120.5 62.5c1.574.437 2.741 1.437 3.5 3a6.802 6.802 0 0 1 1.5-3 13.115 13.115 0 0 1 1 7c-2.411.363-3.911-.637-4.5-3l-1 3a24.935 24.935 0 0 1-.5-7zM127.5 62.5c1.788-.285 3.455.048 5 1-1.455 1.72-2.288 3.72-2.5 6-.448-2.53-1.281-4.864-2.5-7zM139.5 62.5c1.644-.214 3.144.12 4.5 1 .495 1.973.662 3.973.5 6-6.948 1.074-8.615-1.26-5-7zM146.5 62.5c1.644-.214 3.144.12 4.5 1-.188 2.185-.354 4.185-.5 6-1-1.333-2-1.333-3 0a13.115 13.115 0 0 1-1-7zM154.5 62.5c4.714-.3 6.38 1.7 5 6-6.467 1.704-8.133-.296-5-6zm1 2c3.361.703 3.694 2.037 1 4-2.142-.937-2.476-2.27-1-4zM161.5 62.5c1.499 1.178 2.499 2.845 3 5l2-5c2.331 5.447.831 7.447-4.5 6a18.452 18.452 0 0 1-.5-6zM169.5 62.5c6.326 1.027 6.66 3.36 1 7a13.115 13.115 0 0 1-1-7z"/></svg>