<svg xmlns="http://www.w3.org/2000/svg" viewBox="0 0 176.21 72"><g fill="#FFF"><path d="M49.12 53.62c.13 0 .32-.04.58-.13.04-.04.11-.06.19-.06.09 0 .13-.02.13-.06l.51-.71.13-.13v-.19c0-.26-.39-.41-1.16-.45-.51-.09-.99-.17-1.41-.26l-.26-.06c-.81-.26-1.37-.86-1.67-1.8-.34-.94-.51-2.53-.51-4.75V30.3c0-2.31-.15-3.98-.45-5.01-.26-.94-.79-1.88-1.61-2.83a5.804 5.804 0 0 0-2.12-1.61c-.9-.34-1.8-.51-2.7-.51-.51 0-1.07.06-1.67.19l-.19.06c-.73.26-1.26.47-1.61.64l-1.93 1.28c-1.03.64-2.31 1.48-3.85 2.5l-1.35.9c-.34-1.71-1.09-3.06-2.25-4.05-1.2-1.03-2.63-1.54-4.3-1.54-.51 0-1.07.06-1.67.19l-.19.06c-.73.26-1.26.47-1.61.64l-3.28 2.12c-1.16.69-2.31 1.46-3.47 2.31 0-.6.04-1.41.13-2.44s.19-1.78.32-2.25c-.21-.26-.39-.43-.51-.51l-.13-.06a1.16 1.16 0 0 0-.32-.06c-.09 0-.26.13-.51.39-1.37 1.2-2.85 1.8-4.43 1.8h-.44c-.17-.04-.39-.06-.64-.06s-.43.02-.51.06l-.07.09-.26.26-.51.71-.06.13c-.04.04-.06.09-.06.13-.04.04-.06.11-.06.19 0 .13.32.24.96.32.39 0 .64.02.77.06.86.17 1.43.56 1.73 1.16.3.56.45 1.67.45 3.34v16.05c0 2.31-.11 3.9-.32 4.75-.17.81-.54 1.39-1.09 1.73-.21.13-.56.26-1.03.39-.51.04-.83.24-.96.58l-.32.77v.13c0 .04.04.11.13.19.09.09.19.13.32.13.26 0 .92-.09 1.99-.26 1.24-.13 2.38-.19 3.4-.19 1.03 0 2.14.06 3.34.19 1.07.17 1.78.26 2.12.26.13 0 .32-.04.58-.13.04 0 .11-.02.19-.06.09 0 .15-.02.19-.06l.51-.71c.04-.04.06-.13.06-.26l.06-.06c0-.26-.41-.41-1.22-.45-.51-.09-.99-.17-1.41-.26l-.26-.06c-.77-.17-1.33-.75-1.67-1.73-.3-.86-.45-2.46-.45-4.82V33.9c0-1.88.15-3.28.45-4.17.34-.94.81-1.78 1.41-2.5.9-1.03 1.88-1.82 2.95-2.38 1.11-.6 2.14-.9 3.08-.9 1.8 0 3.1.71 3.92 2.12.77 1.41 1.16 3.83 1.16 7.26V45.4c0 2.18-.06 3.66-.19 4.43-.13.73-.36 1.26-.71 1.61-.17.17-.45.28-.83.32-.56.13-.86.34-.9.64l-.26.77v.13c0 .04.04.11.13.19.09.09.17.13.26.13.39-.04.94-.13 1.67-.26 1.11-.13 2.21-.19 3.28-.19.9 0 1.88.06 2.95.19 1.03.17 1.76.26 2.18.26.13 0 .32-.04.58-.13.04 0 .11-.02.19-.06.09 0 .15-.02.19-.06l.45-.71c.04-.04.06-.09.06-.13l.06-.06v-.13c0-.26-.39-.41-1.16-.45-.51-.09-.99-.17-1.41-.26l-.26-.06c-.77-.21-1.33-.79-1.67-1.73-.3-.86-.45-2.46-.45-4.82v-13.1c0-1.16.13-2.08.39-2.76.39-.73.86-1.41 1.41-2.06.9-.94 1.9-1.71 3.02-2.31 1.07-.56 2.1-.83 3.08-.83 1.8 0 3.1.71 3.92 2.12.77 1.41 1.16 3.83 1.16 7.26V44c0 2.95-.06 4.86-.19 5.72-.17.81-.43 1.39-.77 1.73-.17.17-.45.28-.83.32-.51.13-.79.34-.84.64l-.26.77v.13c0 .04.04.11.13.19.09.09.17.13.26.13.39-.04.94-.13 1.67-.26 1.11-.13 2.21-.19 3.28-.19.86 0 1.86.06 3.02.19 1 .16 1.71.25 2.13.25zM68.59 53.04c1.5-.81 3.08-2.18 4.75-4.11.47-.51.79-.96.96-1.35.17-.34.26-.73.26-1.16v-.96c0-.09-.02-.15-.06-.19-.04-.04-.11-.06-.19-.06-.13 0-.47.34-1.03 1.03-.56.64-1.13 1.22-1.73 1.73-1.16 1.03-2.14 1.69-2.95 1.99-.9.39-1.88.58-2.95.58-2.83 0-5.1-1.37-6.81-4.11-1.76-2.78-2.63-6.38-2.63-10.79 0-4.02.77-7.15 2.31-9.38 1.54-2.27 3.64-3.4 6.29-3.4 1.54 0 2.8.36 3.79 1.09 1.03.81 1.86 2.03 2.5 3.66.17.39.3.81.39 1.28.13.6.32.9.58.9.09 0 .15-.02.19-.06.04-.04.09-.06.13-.06l.51-.39c.13-.13.21-.23.26-.32.04-.13.06-.28.06-.45v-.39c-.17-.9-.26-1.99-.26-3.28 0-.94.09-1.84.26-2.7.13-.9.19-1.37.19-1.41 0-.13-.02-.21-.06-.26-.04-.04-.13-.06-.26-.06h-.06l-.83.13c-.04 0-.09.02-.13.06-.39.26-.81.39-1.28.39-.09 0-.47-.06-1.16-.19-.21-.04-.47-.09-.77-.13-1.16-.21-2.08-.32-2.76-.32-1.5 0-3.1.36-4.82 1.09-1.71.77-3.15 1.76-4.3 2.95-1.54 1.63-2.74 3.58-3.6 5.84-.86 2.23-1.28 4.65-1.28 7.26 0 4.88 1.09 8.91 3.28 12.07 2.18 3.13 4.92 4.69 8.22 4.69 1.87.01 3.54-.4 4.99-1.21zM106.53 51.05c.73-.6 1.09-1.09 1.09-1.48v-.77c0-.13-.02-.21-.06-.26-.04-.04-.13-.06-.26-.06-.17 0-.62.28-1.35.84-.69.51-1.35.77-1.99.77-.73 0-1.43-.34-2.12-1.03-.73-.73-1.63-2.1-2.7-4.11l-2.44-4.43c-1.71-3.21-3.04-5.24-3.98-6.1-.99-.86-2.01-1.28-3.08-1.28h-.39l6.55-6.17c1.71-1.58 3.51-2.76 5.4-3.53 1.8-.68 2.76-1.09 2.89-1.22l.32-.77v-.06c0-.09-.04-.17-.13-.26s-.21-.13-.39-.13c-.04 0-.62.06-1.73.19-1.07.13-2.16.19-3.28.19-.81 0-1.78-.06-2.89-.19-1.07-.13-1.71-.19-1.93-.19-.3 0-.51.02-.64.06a.78.78 0 0 0-.32.19l-.45.71c0 .04-.02.06-.06.06-.04.09-.06.17-.06.26 0 .17.09.28.26.32.34.09.77.19 1.28.32.13.04.3.17.51.39.13.26.19.51.19.77 0 .3-.13.69-.39 1.16-.21.26-.79.86-1.73 1.8l-8.41 8.22V11.81c0-1.07.04-2.16.13-3.28.09-1.07.19-1.84.32-2.31a3.38 3.38 0 0 0-.51-.45l-.13-.07c-.13-.04-.26-.06-.39-.06s-.28.09-.45.26c-.81.77-1.84 1.28-3.08 1.54-.81.17-1.76.3-2.83.39-1.03.04-1.58.11-1.67.19l-.45.77-.06.06c0 .04-.02.09-.06.13v.26c0 .21.36.32 1.09.32.9.09 1.5.17 1.8.26.86.26 1.43.66 1.73 1.22.26.56.39 1.58.39 3.08v29.87c0 2.78-.11 4.65-.32 5.59-.21.86-.6 1.48-1.16 1.86-.21.13-.56.26-1.03.39-.51.04-.84.24-.96.58l-.32.77v.06c0 .09.04.17.13.26s.21.13.39.13c.26 0 .92-.09 1.99-.26a29.93 29.93 0 0 1 6.74 0c1.07.17 1.78.26 2.12.26.17 0 .34-.04.51-.13.04 0 .11-.02.19-.06.09 0 .15-.02.19-.06l.51-.71c.04-.04.06-.09.06-.13l.06-.06v-.13c0-.26-.39-.41-1.16-.45-.51-.09-.99-.17-1.41-.26l-.26-.06c-.77-.21-1.33-.79-1.67-1.73-.3-.86-.45-2.46-.45-4.82v-5.52c0-1.03.28-1.82.83-2.38.51-.6 1.22-.9 2.12-.9 1.75 0 3.87 2.25 6.36 6.74.09.17.15.3.19.39l2.44 4.5c.04.09.13.24.26.45l.19.32c2.06 3.77 3.79 5.65 5.2 5.65.9 0 1.99-.64 3.28-1.93.3-.26.51-.47.64-.64.09-.09.28-.26.58-.51l.22-.15zM121.42 53.43c.09 0 .15-.02.19-.06l.51-.71c.04-.04.06-.13.06-.26l.06-.06c0-.26-.41-.41-1.22-.45-.51-.09-.99-.17-1.41-.26l-.26-.06c-.77-.17-1.33-.75-1.67-1.73-.3-.86-.45-2.46-.45-4.82V25.68c0-.64.04-1.48.13-2.51.04-.64.15-1.37.32-2.18-.21-.26-.39-.43-.51-.51l-.13-.06a1.16 1.16 0 0 0-.32-.06c-.09 0-.26.13-.51.39-1.37 1.2-2.85 1.8-4.43 1.8h-.45c-.17-.04-.39-.06-.64-.06-.26 0-.43.02-.51.06l-.06.06-.26.26-.51.71-.06.13c-.04.04-.06.09-.06.13-.04.04-.06.11-.06.19 0 .13.32.24.96.32.39 0 .64.02.77.06.86.17 1.43.56 1.73 1.16.3.56.45 1.67.45 3.34v16.05c0 2.31-.11 3.9-.32 4.75-.17.81-.54 1.39-1.09 1.73-.21.13-.56.26-1.03.39-.51.04-.84.24-.96.58l-.32.77v.13c0 .04.04.11.13.19.09.09.19.13.32.13.26 0 .92-.09 1.99-.26 1.24-.13 2.38-.19 3.4-.19 1.03 0 2.14.06 3.34.19 1.07.17 1.78.26 2.12.26.13 0 .32-.04.58-.13.03-.01.09-.03.18-.07zM171.84 53.49c.04-.04.11-.06.19-.06.09 0 .13-.02.13-.06l.51-.71.13-.13v-.19c0-.26-.39-.41-1.16-.45-.51-.09-.99-.17-1.41-.26l-.26-.06c-.81-.26-1.37-.86-1.67-1.8-.34-.94-.51-2.53-.51-4.75V30.3c0-2.31-.15-3.98-.45-5.01-.26-.94-.79-1.88-1.61-2.83a5.804 5.804 0 0 0-2.12-1.61c-.9-.34-1.8-.51-2.7-.51-.51 0-1.07.06-1.67.19l-.19.06c-.73.26-1.26.47-1.61.64l-1.93 1.28c-1.03.64-2.31 1.48-3.85 2.5l-1.35.9c-.34-1.71-1.09-3.06-2.25-4.05-1.2-1.03-2.63-1.54-4.3-1.54-.51 0-1.07.06-1.67.19l-.19.06c-.73.26-1.26.47-1.61.64l-3.28 2.12c-1.16.69-2.31 1.46-3.47 2.31 0-.6.04-1.41.13-2.44s.19-1.78.32-2.25c-.21-.26-.39-.43-.51-.51l-.13-.06a1.16 1.16 0 0 0-.32-.06c-.09 0-.26.13-.51.39-1.37 1.2-2.85 1.8-4.43 1.8h-.45c-.17-.04-.39-.06-.64-.06-.26 0-.43.02-.51.06l-.06.06-.26.26-.51.71-.06.13c-.04.04-.06.09-.06.13-.04.04-.06.11-.06.19 0 .13.32.24.96.32.39 0 .64.02.77.06.86.17 1.43.56 1.73 1.16.3.56.45 1.67.45 3.34v16.05c0 2.31-.11 3.9-.32 4.75-.17.81-.54 1.39-1.09 1.73-.21.13-.56.26-1.03.39-.51.04-.84.24-.96.58l-.32.77v.13c0 .04.04.11.13.19.09.09.19.13.32.13.26 0 .92-.09 1.99-.26 1.24-.13 2.38-.19 3.4-.19s2.14.06 3.34.19c1.07.17 1.78.26 2.12.26.13 0 .32-.04.58-.13.04 0 .11-.02.19-.06.09 0 .15-.02.19-.06l.51-.71c.04-.04.06-.13.06-.26l.06-.06c0-.26-.41-.41-1.22-.45-.51-.09-.99-.17-1.41-.26l-.26-.06c-.77-.17-1.33-.75-1.67-1.73-.3-.86-.45-2.46-.45-4.82V33.9c0-1.88.15-3.28.45-4.17.34-.94.81-1.78 1.41-2.5.9-1.03 1.88-1.82 2.95-2.38 1.11-.6 2.14-.9 3.08-.9 1.8 0 3.1.71 3.92 2.12.77 1.41 1.16 3.83 1.16 7.26V45.4c0 2.18-.06 3.66-.19 4.43-.13.73-.36 1.26-.71 1.61-.17.17-.45.28-.84.32-.56.13-.86.34-.9.64l-.26.77v.13c0 .04.04.11.13.19.09.09.17.13.26.13.39-.04.94-.13 1.67-.26 1.11-.13 2.2-.19 3.28-.19.9 0 1.88.06 2.95.19 1.03.17 1.75.26 2.18.26.13 0 .32-.04.58-.13.04 0 .11-.02.19-.06.09 0 .15-.02.19-.06l.45-.71c.04-.04.06-.09.06-.13l.06-.06v-.13c0-.26-.38-.41-1.16-.45-.51-.09-.99-.17-1.41-.26l-.26-.06c-.77-.21-1.33-.79-1.67-1.73-.3-.86-.45-2.46-.45-4.82v-13.1c0-1.16.13-2.08.39-2.76.39-.73.86-1.41 1.41-2.06.9-.94 1.91-1.71 3.02-2.31 1.07-.56 2.1-.83 3.08-.83 1.8 0 3.1.71 3.92 2.12.77 1.41 1.16 3.83 1.16 7.26V44c0 2.95-.06 4.86-.19 5.72-.17.81-.43 1.39-.77 1.73-.17.17-.45.28-.84.32-.51.13-.79.34-.83.64l-.26.77v.13c0 .04.04.11.13.19.09.09.17.13.26.13.39-.04.94-.13 1.67-.26 1.11-.13 2.21-.19 3.28-.19.86 0 1.86.06 3.02.19.98.17 1.69.26 2.12.26.15-.01.35-.05.6-.14zM6.28 64.09c-.49-.25-1.08-.38-1.75-.38H2.6v6.19h1.93c.68 0 1.26-.12 1.75-.37s.87-.6 1.14-1.07c.26-.46.4-1.01.4-1.65s-.13-1.18-.4-1.65a2.74 2.74 0 0 0-1.14-1.07zm.07 4.51c-.42.42-1.03.63-1.83.63H3.4v-4.87h1.12c.79 0 1.4.22 1.83.65.42.43.63 1.03.63 1.8 0 .78-.21 1.37-.63 1.79zM10.41 69.91h3.33v-.67h-2.53v-2.13h2.26v-.67h-2.26v-2.07h2.53v-.66h-3.33zM19.32 66.78c-.25-.11-.58-.22-.99-.33-.34-.09-.6-.18-.79-.25-.19-.07-.34-.18-.47-.32-.13-.14-.19-.33-.19-.55 0-.31.11-.56.32-.73.21-.17.49-.26.83-.26.36 0 .65.09.87.27.22.18.34.39.37.63h.89a1.61 1.61 0 0 0-.63-1.15c-.37-.29-.85-.44-1.43-.44-.4 0-.76.07-1.07.21-.31.14-.55.34-.72.6-.17.26-.26.56-.26.9 0 .39.09.69.26.92.17.23.38.4.63.5.25.11.57.21.98.32.33.09.6.17.79.25.2.08.36.19.49.34.13.15.2.34.2.58 0 .3-.11.55-.33.74-.22.19-.53.29-.91.29-.4 0-.71-.1-.92-.3-.21-.2-.33-.44-.36-.73h-.86c.01.34.1.64.28.89.18.26.44.46.76.6.32.15.69.22 1.1.22.43 0 .8-.08 1.11-.25.31-.17.55-.38.71-.65.16-.27.24-.55.24-.85 0-.39-.09-.7-.27-.93a1.5 1.5 0 0 0-.63-.52zM22.92 63.72h.81v6.19h-.81zM29.15 67.22h2.47c-.07.62-.29 1.1-.68 1.47-.39.36-.89.54-1.49.54-.43 0-.82-.1-1.17-.3a2.1 2.1 0 0 1-.82-.85c-.2-.37-.3-.79-.3-1.28s.1-.91.3-1.28c.2-.37.47-.65.82-.85.35-.2.74-.3 1.17-.3.43 0 .81.1 1.14.3.33.2.57.48.75.84h.97c-.23-.59-.6-1.05-1.11-1.38-.51-.33-1.09-.49-1.75-.49-.57 0-1.1.13-1.57.4s-.85.65-1.12 1.13c-.28.48-.41 1.03-.41 1.63 0 .6.14 1.15.41 1.63.28.48.65.85 1.12 1.12.47.27 1 .4 1.57.4.54 0 1.04-.12 1.48-.37.44-.25.8-.58 1.07-1 .27-.42.43-.89.48-1.4v-.62h-3.33v.66zM39.14 68.63l-3.25-4.92h-.81v6.2h.81v-4.93l3.25 4.93h.8v-6.2h-.8zM51.5 67.95l.73-1.26h-.87l-.6 1.01-.16.25-1.85-1.86c-.23-.24-.4-.45-.49-.61-.1-.17-.15-.34-.15-.52 0-.21.07-.38.22-.51s.34-.2.57-.2c.22 0 .41.07.55.21.14.14.21.33.2.57h.81c.01-.27-.04-.52-.16-.74-.12-.22-.3-.4-.53-.52-.24-.12-.52-.19-.83-.19-.33 0-.61.06-.86.18s-.44.28-.57.49c-.13.21-.2.45-.2.71 0 .23.04.43.12.62.08.19.22.4.41.62-.48.19-.84.45-1.09.78-.25.33-.37.71-.37 1.14 0 .38.09.71.27.99.18.28.44.5.76.66.33.15.71.23 1.13.23.43 0 .82-.08 1.16-.23.34-.15.67-.38.97-.7l.81.82h1.06l-1.39-1.39c.13-.18.25-.37.35-.55zm-2.09 1.18c-.26.12-.55.19-.87.19-.4 0-.73-.12-.98-.35-.25-.23-.38-.52-.38-.87 0-.63.38-1.09 1.14-1.38l1.82 1.83c-.23.27-.48.46-.73.58zM62.38 64.09c-.49-.25-1.08-.38-1.75-.38H58.7v6.19h1.93c.68 0 1.26-.12 1.75-.37s.87-.6 1.14-1.07c.26-.46.4-1.01.4-1.65s-.13-1.18-.4-1.65c-.26-.46-.64-.82-1.14-1.07zm.08 4.51c-.42.42-1.03.63-1.83.63h-1.12v-4.87h1.12c.79 0 1.4.22 1.83.65.42.43.63 1.03.63 1.8 0 .78-.21 1.37-.63 1.79zM66.51 69.91h3.33v-.67h-2.52v-2.13h2.26v-.67h-2.26v-2.07h2.52v-.66h-3.33zM74.91 69.05l-1.94-5.33h-.87l2.34 6.19h.93l2.34-6.19h-.85zM80.05 69.91h3.33v-.67h-2.53v-2.13h2.26v-.67h-2.26v-2.07h2.53v-.66h-3.33zM86.78 63.72h-.81v6.19h2.98v-.66h-2.17zM95.35 64.05c-.47-.27-1-.4-1.58-.4-.57 0-1.1.13-1.57.4s-.85.65-1.12 1.13c-.28.48-.41 1.03-.41 1.63 0 .6.14 1.15.41 1.63.28.48.65.86 1.12 1.13.47.27 1 .4 1.57.4.58 0 1.11-.13 1.58-.4s.85-.64 1.12-1.12c.27-.48.41-1.02.41-1.63 0-.61-.14-1.15-.41-1.63-.27-.5-.65-.87-1.12-1.14zm.41 4.05c-.2.37-.47.66-.82.86-.35.2-.74.3-1.17.3-.43 0-.82-.1-1.17-.3-.35-.2-.62-.49-.82-.86-.2-.37-.3-.81-.3-1.3 0-.5.1-.93.3-1.3.2-.37.47-.66.81-.86.34-.2.73-.3 1.17-.3.44 0 .83.1 1.17.3.34.2.61.49.81.86.2.37.3.8.3 1.3.01.5-.09.93-.28 1.3zM101.47 63.72h-2v6.19h.81v-2.58h1.19c.72 0 1.26-.17 1.61-.51.35-.34.53-.77.53-1.28 0-.53-.18-.97-.55-1.31-.36-.35-.89-.51-1.59-.51zm.99 2.64c-.21.2-.54.29-.99.29h-1.19v-2.27h1.19c.88 0 1.31.38 1.31 1.15 0 .36-.1.64-.32.83zM109.15 68.84l-2.28-5.08H106v6.15h.81v-4.6l2.05 4.6h.57l2.04-4.59v4.59h.81v-6.15h-.86zM115.21 69.91h3.33v-.67h-2.52v-2.13h2.25v-.67h-2.25v-2.07h2.52v-.66h-3.33zM125.2 68.63l-3.25-4.92h-.81v6.2h.81v-4.93l3.25 4.93h.8v-6.2h-.8zM128.39 64.37h1.7v5.54h.8v-5.54h1.69v-.65h-4.19zM141.5 67.22h2.47c-.07.62-.29 1.1-.68 1.47-.39.36-.89.54-1.49.54-.43 0-.82-.1-1.17-.3a2.1 2.1 0 0 1-.82-.85c-.2-.37-.3-.79-.3-1.28s.1-.91.3-1.28c.2-.37.47-.65.82-.85.35-.2.74-.3 1.17-.3.43 0 .81.1 1.14.3.33.2.57.48.75.84h.97c-.23-.59-.6-1.05-1.11-1.38-.51-.33-1.09-.49-1.75-.49-.57 0-1.1.13-1.57.4s-.85.65-1.12 1.13c-.28.48-.41 1.03-.41 1.63 0 .6.14 1.15.41 1.63.28.48.65.85 1.12 1.12.47.27 1 .4 1.57.4.54 0 1.04-.12 1.48-.37.44-.25.8-.58 1.07-1 .27-.42.43-.89.48-1.4v-.62h-3.33v.66zM151.2 66.66c.25-.33.37-.7.37-1.13 0-.35-.08-.66-.24-.93-.16-.27-.4-.49-.72-.65-.32-.16-.72-.24-1.19-.24h-2v6.19h.81v-2.53h.98l1.47 2.53h.97l-1.55-2.59c.49-.1.85-.32 1.1-.65zm-2.97.07v-2.34h1.19c.44 0 .77.1.99.3.22.2.32.49.32.85s-.11.65-.33.87c-.22.22-.55.32-.99.32h-1.18zM158.58 64.05c-.47-.27-1-.4-1.58-.4-.57 0-1.1.13-1.57.4s-.85.65-1.12 1.13c-.28.48-.41 1.03-.41 1.63 0 .6.14 1.15.41 1.63.28.48.65.86 1.12 1.13.47.27 1 .4 1.57.4.58 0 1.11-.13 1.58-.4s.85-.64 1.12-1.12c.27-.48.41-1.02.41-1.63 0-.61-.14-1.15-.41-1.63-.28-.5-.65-.87-1.12-1.14zm.4 4.05c-.2.37-.47.66-.82.86-.35.2-.74.3-1.17.3-.43 0-.82-.1-1.17-.3-.35-.2-.62-.49-.82-.86-.2-.37-.3-.81-.3-1.3 0-.5.1-.93.3-1.3.2-.37.47-.66.81-.86.34-.2.73-.3 1.17-.3.44 0 .83.1 1.17.3.34.2.61.49.81.86.2.37.3.8.3 1.3.02.5-.08.93-.28 1.3zM166.53 67.63c0 .55-.13.96-.4 1.23s-.64.4-1.11.4c-.48 0-.85-.13-1.12-.4-.27-.27-.4-.67-.4-1.23v-3.92h-.81v3.91c0 .52.1.95.31 1.3.2.35.48.61.83.79.35.17.75.26 1.19.26.44 0 .83-.09 1.19-.26.35-.17.63-.43.84-.79.21-.35.31-.79.31-1.3v-3.91h-.81v3.92zM173.82 64.22c-.36-.34-.9-.51-1.59-.51h-2v6.19h.81v-2.58h1.19c.72 0 1.26-.17 1.61-.51s.53-.77.53-1.28c0-.54-.18-.97-.55-1.31zm-.6 2.14c-.21.2-.54.29-.99.29h-1.19v-2.27h1.19c.88 0 1.31.38 1.31 1.15 0 .36-.1.64-.32.83zM108.14 19.51c5.37-6 7.51-6 13.22-.47-5.71-5.53-5.68-7.67.31-12.95-5.99 5.27-8.14 5.27-13.71-.64 5.57 5.91 5.54 8.05.18 14.06z"/></g></svg>