<?xml version="1.0" encoding="utf-8"?>
<!-- Generator: Adobe Illustrator 24.0.1, SVG Export Plug-In . SVG Version: 6.00 Build 0)  -->
<svg version="1.1" id="Layer_1" xmlns="http://www.w3.org/2000/svg" xmlns:xlink="http://www.w3.org/1999/xlink" x="0px" y="0px"
	 viewBox="0 0 520 177" enable-background="new 0 0 520 177" xml:space="preserve">
<g>
	<path fill="#FFFFFF" d="M233.39,70.31c2.81-1.87,5.16-3.4,7.03-4.57l3.52-2.34c0.62-0.31,1.6-0.7,2.93-1.17l0.35-0.12
		c1.09-0.23,2.11-0.35,3.05-0.35c1.64,0,3.28,0.31,4.92,0.94c1.56,0.7,2.85,1.68,3.87,2.93c1.48,1.72,2.46,3.44,2.93,5.16
		c0.55,1.87,0.82,4.92,0.82,9.14v3.05v23.78c0,4.06,0.31,6.95,0.94,8.67c0.55,1.72,1.56,2.81,3.05,3.28l0.47,0.12
		c0.78,0.16,1.64,0.31,2.58,0.47c1.41,0.08,2.11,0.35,2.11,0.82v0.35l-0.23,0.23l-0.94,1.29c0,0.08-0.08,0.12-0.23,0.12
		c-0.16,0-0.27,0.04-0.35,0.12c-0.47,0.16-0.82,0.23-1.05,0.23c-0.78,0-2.07-0.16-3.87-0.47c-2.11-0.23-3.95-0.35-5.51-0.35
		c-1.95,0-3.95,0.12-5.98,0.35c-1.33,0.23-2.34,0.39-3.05,0.47c-0.16,0-0.31-0.08-0.47-0.23c-0.16-0.16-0.23-0.27-0.23-0.35v-0.23
		l0.47-1.41c0.08-0.55,0.59-0.94,1.52-1.17c0.7-0.08,1.21-0.27,1.52-0.59c0.62-0.62,1.09-1.68,1.41-3.16
		c0.23-1.56,0.35-5.04,0.35-10.43V85.42c0-6.25-0.7-10.66-2.11-13.24c-1.48-2.58-3.87-3.87-7.15-3.87c-1.8,0-3.67,0.51-5.62,1.52
		c-2.03,1.09-3.87,2.5-5.51,4.22c-1.02,1.17-1.88,2.42-2.58,3.75c-0.47,1.25-0.7,2.93-0.7,5.04v23.9c0,4.3,0.27,7.23,0.82,8.79
		c0.62,1.72,1.64,2.77,3.05,3.16l0.47,0.12c0.78,0.16,1.64,0.31,2.58,0.47c1.41,0.08,2.11,0.35,2.11,0.82v0.23l-0.12,0.12
		c0,0.08-0.04,0.16-0.12,0.23l-0.82,1.29c-0.08,0.08-0.2,0.12-0.35,0.12c-0.16,0.08-0.27,0.12-0.35,0.12
		c-0.47,0.16-0.82,0.23-1.05,0.23c-0.78,0-2.11-0.16-3.98-0.47c-1.95-0.23-3.75-0.35-5.39-0.35c-1.95,0-3.95,0.12-5.98,0.35
		c-1.33,0.23-2.34,0.39-3.05,0.47c-0.16,0-0.31-0.08-0.47-0.23c-0.16-0.16-0.23-0.27-0.23-0.35v-0.23l0.47-1.41
		c0.08-0.55,0.62-0.94,1.64-1.17c0.7-0.08,1.21-0.27,1.52-0.59c0.62-0.62,1.05-1.6,1.29-2.93c0.23-1.41,0.35-4.1,0.35-8.08v-2.58
		V85.42c0-6.25-0.7-10.66-2.11-13.24c-1.48-2.58-3.87-3.87-7.15-3.87c-1.72,0-3.59,0.55-5.62,1.64c-1.95,1.02-3.75,2.46-5.39,4.34
		c-1.09,1.33-1.95,2.85-2.58,4.57c-0.55,1.64-0.82,4.18-0.82,7.62v0.94v19.33c0,4.3,0.27,7.23,0.82,8.79
		c0.62,1.8,1.64,2.85,3.05,3.16l0.47,0.12c0.78,0.16,1.64,0.31,2.58,0.47c1.48,0.08,2.23,0.35,2.23,0.82l-0.12,0.12
		c0,0.23-0.04,0.39-0.12,0.47l-0.94,1.29c-0.08,0.08-0.2,0.12-0.35,0.12c-0.16,0.08-0.27,0.12-0.35,0.12
		c-0.47,0.16-0.82,0.23-1.05,0.23c-0.63,0-1.92-0.16-3.87-0.47c-2.19-0.23-4.22-0.35-6.09-0.35c-1.87,0-3.95,0.12-6.21,0.35
		c-1.95,0.31-3.16,0.47-3.63,0.47c-0.23,0-0.43-0.08-0.59-0.23c-0.16-0.16-0.23-0.27-0.23-0.35v-0.23l0.59-1.41
		c0.23-0.62,0.82-0.98,1.76-1.05c0.86-0.23,1.48-0.47,1.87-0.7c1.01-0.62,1.68-1.68,1.99-3.16c0.39-1.56,0.59-4.45,0.59-8.67v-1.76
		V77.34c0-3.05-0.27-5.08-0.82-6.09c-0.55-1.09-1.6-1.8-3.16-2.11c-0.23-0.08-0.7-0.12-1.41-0.12c-1.17-0.16-1.76-0.35-1.76-0.59
		c0-0.16,0.04-0.27,0.12-0.35c0-0.08,0.04-0.16,0.12-0.23l0.12-0.23l0.94-1.29c0.16-0.16,0.31-0.31,0.47-0.47l0.12-0.12
		c0.16-0.08,0.47-0.12,0.94-0.12s0.86,0.04,1.17,0.12h0.82c2.89,0,5.58-1.09,8.08-3.28c0.47-0.47,0.78-0.7,0.94-0.7
		c0.16,0,0.35,0.04,0.59,0.12l0.23,0.12c0.23,0.16,0.55,0.47,0.94,0.94c-0.23,0.86-0.43,2.23-0.59,4.1
		c-0.16,1.88-0.23,3.36-0.23,4.45c2.11-1.56,4.22-2.97,6.33-4.22l5.98-3.87c0.62-0.31,1.6-0.7,2.93-1.17l0.35-0.12
		c1.09-0.23,2.11-0.35,3.05-0.35c3.05,0,5.66,0.94,7.85,2.81c2.11,1.8,3.47,4.26,4.1,7.38L233.39,70.31z"/>
	<path fill="#FFFFFF" d="M312.73,61.87h0.12c0.23,0,0.39,0.04,0.47,0.12c0.08,0.08,0.12,0.23,0.12,0.47c0,0.08-0.12,0.94-0.35,2.58
		c-0.31,1.56-0.47,3.2-0.47,4.92c0,2.34,0.16,4.34,0.47,5.98v0.7c0,0.31-0.04,0.59-0.12,0.82c-0.08,0.16-0.23,0.35-0.47,0.59
		l-0.94,0.7c-0.08,0-0.16,0.04-0.23,0.12c-0.08,0.08-0.2,0.12-0.35,0.12c-0.47,0-0.82-0.55-1.05-1.64c-0.16-0.86-0.39-1.64-0.7-2.34
		c-1.17-2.97-2.69-5.19-4.57-6.68c-1.8-1.33-4.1-1.99-6.91-1.99c-4.84,0-8.67,2.07-11.48,6.21c-2.81,4.06-4.22,9.77-4.22,17.11
		c0,8.05,1.6,14.61,4.8,19.68c3.12,5,7.26,7.5,12.42,7.5c1.95,0,3.75-0.35,5.39-1.05c1.48-0.55,3.28-1.76,5.39-3.63
		c1.09-0.94,2.15-1.99,3.16-3.16c1.01-1.25,1.64-1.88,1.88-1.88c0.16,0,0.27,0.04,0.35,0.12c0.08,0.08,0.12,0.2,0.12,0.35v1.76
		c0,0.78-0.16,1.48-0.47,2.11c-0.31,0.7-0.9,1.52-1.76,2.46c-3.05,3.52-5.94,6.02-8.67,7.5c-2.66,1.48-5.7,2.23-9.14,2.23
		c-6.02,0-11.01-2.85-15-8.55c-3.98-5.78-5.98-13.12-5.98-22.03c0-4.76,0.78-9.18,2.34-13.24c1.56-4.14,3.75-7.69,6.56-10.66
		c2.11-2.19,4.73-3.98,7.85-5.39c3.12-1.33,6.05-1.99,8.79-1.99c1.25,0,2.93,0.2,5.04,0.59c0.55,0.08,1.01,0.16,1.41,0.23
		c1.25,0.23,1.95,0.35,2.11,0.35c0.86,0,1.64-0.23,2.34-0.7c0.08-0.08,0.16-0.12,0.23-0.12L312.73,61.87z"/>
	<path fill="#FFFFFF" d="M333.43,40.2c-0.16,2.03-0.23,4.02-0.23,5.98v3.05v39.72l15.35-15c1.72-1.72,2.77-2.81,3.16-3.28
		c0.47-0.86,0.7-1.56,0.7-2.11c0-0.47-0.12-0.94-0.35-1.41c-0.39-0.39-0.7-0.62-0.94-0.7c-0.94-0.23-1.72-0.43-2.34-0.59
		c-0.31-0.08-0.47-0.27-0.47-0.59c0-0.16,0.04-0.31,0.12-0.47c0.08,0,0.12-0.04,0.12-0.12l0.82-1.29c0.16-0.16,0.35-0.27,0.59-0.35
		c0.23-0.08,0.62-0.12,1.17-0.12c0.39,0,1.56,0.12,3.52,0.35c2.03,0.23,3.79,0.35,5.27,0.35c2.03,0,4.02-0.12,5.98-0.35
		c2.03-0.23,3.08-0.35,3.16-0.35c0.31,0,0.55,0.08,0.7,0.23c0.16,0.16,0.23,0.31,0.23,0.47v0.12l-0.59,1.41
		c-0.23,0.23-1.99,0.98-5.27,2.23c-3.44,1.41-6.72,3.56-9.84,6.44l-11.95,11.25h0.7c1.95,0,3.83,0.78,5.62,2.34
		c1.72,1.56,4.14,5.27,7.26,11.13l4.45,8.08c1.95,3.67,3.59,6.17,4.92,7.5c1.25,1.25,2.54,1.87,3.87,1.87
		c1.17,0,2.38-0.47,3.63-1.41c1.33-1.01,2.15-1.52,2.46-1.52c0.23,0,0.39,0.04,0.47,0.12c0.08,0.08,0.12,0.23,0.12,0.47v1.41
		c0,0.7-0.66,1.6-1.99,2.69L373.5,118c-0.55,0.47-0.9,0.78-1.05,0.94c-0.23,0.31-0.63,0.7-1.17,1.17c-2.34,2.34-4.33,3.51-5.98,3.51
		c-2.58,0-5.74-3.44-9.49-10.31l-0.35-0.59c-0.23-0.39-0.39-0.66-0.47-0.82l-4.45-8.2c-0.08-0.16-0.2-0.39-0.35-0.7
		c-4.53-8.2-8.4-12.3-11.6-12.3c-1.64,0-2.93,0.55-3.87,1.64c-1.02,1.02-1.52,2.46-1.52,4.34v10.08c0,4.3,0.27,7.23,0.82,8.79
		c0.63,1.72,1.64,2.77,3.05,3.16l0.47,0.12c0.78,0.16,1.64,0.31,2.58,0.47c1.41,0.08,2.11,0.35,2.11,0.82v0.23l-0.12,0.12
		c0,0.08-0.04,0.16-0.12,0.23l-0.94,1.29c-0.08,0.08-0.2,0.12-0.35,0.12c-0.16,0.08-0.27,0.12-0.35,0.12
		c-0.31,0.16-0.63,0.23-0.94,0.23c-0.63,0-1.91-0.16-3.87-0.47c-2.19-0.23-4.26-0.35-6.21-0.35c-1.95,0-3.98,0.12-6.09,0.35
		c-1.95,0.31-3.16,0.47-3.63,0.47c-0.31,0-0.55-0.08-0.7-0.23c-0.16-0.16-0.23-0.31-0.23-0.47v-0.12l0.59-1.41
		c0.23-0.62,0.82-0.98,1.76-1.05c0.86-0.23,1.48-0.47,1.87-0.7c1.01-0.7,1.72-1.83,2.11-3.4c0.39-1.72,0.59-5.11,0.59-10.19V50.39
		c0-2.73-0.23-4.61-0.7-5.62c-0.55-1.01-1.6-1.76-3.16-2.23c-0.55-0.16-1.64-0.31-3.28-0.47c-1.33,0-1.99-0.19-1.99-0.59v-0.47
		c0.08-0.08,0.12-0.16,0.12-0.23l0.12-0.12l0.82-1.41c0.16-0.16,1.17-0.27,3.05-0.35c1.95-0.16,3.67-0.39,5.16-0.7
		c2.26-0.47,4.14-1.41,5.62-2.81c0.31-0.31,0.59-0.47,0.82-0.47s0.47,0.04,0.7,0.12l0.23,0.12c0.23,0.16,0.54,0.43,0.94,0.82
		C333.78,36.84,333.59,38.25,333.43,40.2z"/>
	<path fill="#FFFFFF" d="M393.63,66.91c-0.16,1.88-0.23,3.4-0.23,4.57v35.27c0,4.3,0.27,7.23,0.82,8.79
		c0.63,1.8,1.64,2.85,3.05,3.16l0.47,0.12c0.78,0.16,1.64,0.31,2.58,0.47c1.48,0.08,2.23,0.35,2.23,0.82l-0.12,0.12
		c0,0.23-0.04,0.39-0.12,0.47l-0.94,1.29c-0.08,0.08-0.2,0.12-0.35,0.12c-0.16,0.08-0.27,0.12-0.35,0.12
		c-0.47,0.16-0.82,0.23-1.05,0.23c-0.63,0-1.92-0.16-3.87-0.47c-2.19-0.23-4.22-0.35-6.09-0.35s-3.95,0.12-6.21,0.35
		c-1.95,0.31-3.16,0.47-3.63,0.47c-0.23,0-0.43-0.08-0.59-0.23c-0.16-0.16-0.23-0.27-0.23-0.35v-0.23l0.59-1.41
		c0.23-0.62,0.82-0.98,1.76-1.05c0.86-0.23,1.48-0.47,1.87-0.7c1.01-0.62,1.68-1.68,1.99-3.16c0.39-1.56,0.59-4.45,0.59-8.67v-1.76
		V77.34c0-3.05-0.27-5.08-0.82-6.09c-0.55-1.09-1.6-1.8-3.16-2.11c-0.23-0.08-0.7-0.12-1.41-0.12c-1.17-0.16-1.76-0.35-1.76-0.59
		c0-0.16,0.04-0.27,0.12-0.35c0-0.08,0.04-0.16,0.12-0.23l0.12-0.23l0.94-1.29c0.16-0.16,0.31-0.31,0.47-0.47l0.12-0.12
		c0.16-0.08,0.47-0.12,0.94-0.12c0.47,0,0.86,0.04,1.17,0.12h0.82c2.89,0,5.58-1.09,8.08-3.28c0.47-0.47,0.78-0.7,0.94-0.7
		c0.16,0,0.35,0.04,0.59,0.12l0.23,0.12c0.23,0.16,0.55,0.47,0.94,0.94C393.9,64.41,393.71,65.74,393.63,66.91z"/>
	<path fill="#FFFFFF" d="M456.21,70.31c2.81-1.87,5.16-3.4,7.03-4.57l3.52-2.34c0.62-0.31,1.6-0.7,2.93-1.17l0.35-0.12
		c1.09-0.23,2.11-0.35,3.05-0.35c1.64,0,3.28,0.31,4.92,0.94c1.56,0.7,2.85,1.68,3.87,2.93c1.48,1.72,2.46,3.44,2.93,5.16
		c0.54,1.87,0.82,4.92,0.82,9.14v3.05v23.78c0,4.06,0.31,6.95,0.94,8.67c0.55,1.72,1.56,2.81,3.05,3.28l0.47,0.12
		c0.78,0.16,1.64,0.31,2.58,0.47c1.41,0.08,2.11,0.35,2.11,0.82v0.35l-0.23,0.23l-0.94,1.29c0,0.08-0.08,0.12-0.23,0.12
		c-0.16,0-0.27,0.04-0.35,0.12c-0.47,0.16-0.82,0.23-1.05,0.23c-0.78,0-2.07-0.16-3.87-0.47c-2.11-0.23-3.95-0.35-5.51-0.35
		c-1.95,0-3.95,0.12-5.98,0.35c-1.33,0.23-2.34,0.39-3.05,0.47c-0.16,0-0.31-0.08-0.47-0.23c-0.16-0.16-0.23-0.27-0.23-0.35v-0.23
		l0.47-1.41c0.08-0.55,0.59-0.94,1.52-1.17c0.7-0.08,1.21-0.27,1.52-0.59c0.62-0.62,1.09-1.68,1.41-3.16
		c0.23-1.56,0.35-5.04,0.35-10.43V85.42c0-6.25-0.7-10.66-2.11-13.24c-1.48-2.58-3.87-3.87-7.15-3.87c-1.8,0-3.67,0.51-5.62,1.52
		c-2.03,1.09-3.87,2.5-5.51,4.22c-1.02,1.17-1.87,2.42-2.58,3.75c-0.47,1.25-0.7,2.93-0.7,5.04v23.9c0,4.3,0.27,7.23,0.82,8.79
		c0.62,1.72,1.64,2.77,3.05,3.16l0.47,0.12c0.78,0.16,1.64,0.31,2.58,0.47c1.41,0.08,2.11,0.35,2.11,0.82v0.23l-0.12,0.12
		c0,0.08-0.04,0.16-0.12,0.23l-0.82,1.29c-0.08,0.08-0.2,0.12-0.35,0.12c-0.16,0.08-0.28,0.12-0.35,0.12
		c-0.47,0.16-0.82,0.23-1.05,0.23c-0.78,0-2.11-0.16-3.98-0.47c-1.95-0.23-3.75-0.35-5.39-0.35c-1.95,0-3.95,0.12-5.98,0.35
		c-1.33,0.23-2.34,0.39-3.05,0.47c-0.16,0-0.31-0.08-0.47-0.23c-0.16-0.16-0.23-0.27-0.23-0.35v-0.23l0.47-1.41
		c0.08-0.55,0.62-0.94,1.64-1.17c0.7-0.08,1.21-0.27,1.52-0.59c0.62-0.62,1.05-1.6,1.29-2.93c0.23-1.41,0.35-4.1,0.35-8.08v-2.58
		V85.42c0-6.25-0.7-10.66-2.11-13.24c-1.49-2.58-3.87-3.87-7.15-3.87c-1.72,0-3.59,0.55-5.62,1.64c-1.95,1.02-3.75,2.46-5.39,4.34
		c-1.09,1.33-1.95,2.85-2.58,4.57c-0.55,1.64-0.82,4.18-0.82,7.62v0.94v19.33c0,4.3,0.27,7.23,0.82,8.79
		c0.63,1.8,1.64,2.85,3.05,3.16l0.47,0.12c0.78,0.16,1.64,0.31,2.58,0.47c1.48,0.08,2.23,0.35,2.23,0.82l-0.12,0.12
		c0,0.23-0.04,0.39-0.12,0.47l-0.94,1.29c-0.08,0.08-0.2,0.12-0.35,0.12c-0.16,0.08-0.27,0.12-0.35,0.12
		c-0.47,0.16-0.82,0.23-1.05,0.23c-0.63,0-1.92-0.16-3.87-0.47c-2.19-0.23-4.22-0.35-6.09-0.35s-3.95,0.12-6.21,0.35
		c-1.95,0.31-3.16,0.47-3.63,0.47c-0.23,0-0.43-0.08-0.59-0.23c-0.16-0.16-0.23-0.27-0.23-0.35v-0.23l0.59-1.41
		c0.23-0.62,0.82-0.98,1.76-1.05c0.86-0.23,1.48-0.47,1.87-0.7c1.01-0.62,1.68-1.68,1.99-3.16c0.39-1.56,0.59-4.45,0.59-8.67v-1.76
		V77.34c0-3.05-0.27-5.08-0.82-6.09c-0.55-1.09-1.6-1.8-3.16-2.11c-0.23-0.08-0.7-0.12-1.41-0.12c-1.17-0.16-1.76-0.35-1.76-0.59
		c0-0.16,0.04-0.27,0.12-0.35c0-0.08,0.04-0.16,0.12-0.23l0.12-0.23l0.94-1.29c0.16-0.16,0.31-0.31,0.47-0.47l0.12-0.12
		c0.16-0.08,0.47-0.12,0.94-0.12c0.47,0,0.86,0.04,1.17,0.12h0.82c2.89,0,5.58-1.09,8.08-3.28c0.47-0.47,0.78-0.7,0.94-0.7
		c0.16,0,0.35,0.04,0.59,0.12l0.23,0.12c0.23,0.16,0.55,0.47,0.94,0.94c-0.23,0.86-0.43,2.23-0.59,4.1
		c-0.16,1.88-0.23,3.36-0.23,4.45c2.11-1.56,4.22-2.97,6.33-4.22l5.98-3.87c0.63-0.31,1.6-0.7,2.93-1.17l0.35-0.12
		c1.09-0.23,2.11-0.35,3.05-0.35c3.05,0,5.66,0.94,7.85,2.81c2.11,1.8,3.47,4.26,4.1,7.38L456.21,70.31z"/>
</g>
<g>
	<path fill="#FFFFFF" d="M190.97,141.56c0.9,0.46,1.59,1.12,2.07,1.97c0.48,0.85,0.72,1.86,0.72,3.01s-0.24,2.16-0.72,3.01
		c-0.48,0.85-1.17,1.5-2.07,1.94s-1.97,0.67-3.2,0.67h-3.52v-11.29h3.52C189,140.87,190.07,141.1,190.97,141.56z M191.11,149.79
		c0.77-0.77,1.15-1.86,1.15-3.25c0-1.4-0.39-2.5-1.16-3.29c-0.77-0.79-1.88-1.18-3.33-1.18h-2.04v8.88h2.04
		C189.23,150.94,190.34,150.56,191.11,149.79z"/>
	<path fill="#FFFFFF" d="M199.97,142.07v3.78h4.12v1.22h-4.12v3.89h4.6v1.22h-6.08v-11.31h6.08v1.21H199.97z"/>
	<path fill="#FFFFFF" d="M210.66,151.88c-0.59-0.26-1.05-0.63-1.39-1.1s-0.51-1.01-0.52-1.63h1.57c0.05,0.53,0.27,0.98,0.66,1.34
		s0.94,0.54,1.68,0.54c0.7,0,1.26-0.18,1.66-0.53c0.4-0.35,0.61-0.8,0.61-1.35c0-0.43-0.12-0.78-0.36-1.05
		c-0.24-0.27-0.53-0.48-0.89-0.62c-0.36-0.14-0.84-0.29-1.44-0.45c-0.75-0.19-1.34-0.39-1.79-0.58c-0.45-0.19-0.83-0.5-1.15-0.92
		c-0.32-0.42-0.48-0.97-0.48-1.68c0-0.62,0.16-1.16,0.47-1.64c0.31-0.48,0.75-0.84,1.32-1.1c0.57-0.26,1.22-0.39,1.95-0.39
		c1.06,0,1.93,0.26,2.6,0.79c0.67,0.53,1.06,1.23,1.14,2.11h-1.62c-0.05-0.43-0.28-0.81-0.68-1.14c-0.4-0.33-0.93-0.49-1.59-0.49
		c-0.62,0-1.12,0.16-1.51,0.48c-0.39,0.32-0.58,0.76-0.58,1.34c0,0.41,0.12,0.75,0.35,1c0.23,0.26,0.52,0.46,0.86,0.59
		c0.34,0.14,0.82,0.29,1.43,0.46c0.75,0.21,1.34,0.41,1.8,0.61c0.45,0.2,0.84,0.51,1.17,0.92c0.32,0.42,0.49,0.98,0.49,1.69
		c0,0.55-0.15,1.07-0.44,1.56c-0.29,0.49-0.72,0.88-1.3,1.18c-0.57,0.3-1.25,0.45-2.03,0.45
		C211.91,152.27,211.25,152.14,210.66,151.88z"/>
	<path fill="#FFFFFF" d="M222.8,140.87v11.29h-1.47v-11.29H222.8z"/>
	<path fill="#FFFFFF" d="M236.67,144.14c-0.31-0.66-0.77-1.17-1.36-1.53c-0.59-0.36-1.29-0.54-2.07-0.54c-0.79,0-1.5,0.18-2.13,0.54
		s-1.13,0.88-1.49,1.56c-0.36,0.68-0.54,1.46-0.54,2.34c0,0.89,0.18,1.66,0.54,2.33c0.36,0.67,0.86,1.19,1.49,1.55
		s1.34,0.54,2.13,0.54c1.1,0,2.01-0.33,2.72-0.99c0.71-0.66,1.13-1.55,1.25-2.67h-4.5v-1.2h6.08v1.13
		c-0.09,0.93-0.38,1.78-0.88,2.55c-0.5,0.77-1.15,1.38-1.96,1.83s-1.71,0.67-2.71,0.67c-1.05,0-2-0.25-2.87-0.74
		c-0.86-0.49-1.55-1.17-2.05-2.05c-0.5-0.88-0.75-1.86-0.75-2.97c0-1.1,0.25-2.09,0.75-2.97c0.5-0.88,1.19-1.57,2.05-2.06
		c0.86-0.49,1.82-0.74,2.87-0.74c1.2,0,2.26,0.3,3.18,0.89c0.92,0.59,1.6,1.43,2.02,2.51H236.67z"/>
	<path fill="#FFFFFF" d="M252.38,152.16h-1.47l-5.93-8.99v8.99h-1.47v-11.31h1.47l5.93,8.98v-8.98h1.47V152.16z"/>
	<path fill="#FFFFFF" d="M273.43,152.16l-1.47-1.49c-0.55,0.57-1.14,1-1.77,1.27s-1.33,0.41-2.12,0.41c-0.78,0-1.47-0.14-2.07-0.42
		c-0.6-0.28-1.06-0.68-1.39-1.2c-0.33-0.52-0.49-1.12-0.49-1.81c0-0.79,0.22-1.48,0.67-2.08c0.45-0.6,1.11-1.07,1.98-1.42
		c-0.35-0.41-0.59-0.79-0.75-1.13c-0.15-0.35-0.23-0.72-0.23-1.13c0-0.48,0.12-0.9,0.36-1.29c0.24-0.38,0.59-0.68,1.05-0.9
		c0.45-0.22,0.98-0.32,1.57-0.32c0.58,0,1.09,0.11,1.52,0.34c0.43,0.23,0.76,0.54,0.97,0.95c0.22,0.41,0.31,0.86,0.29,1.35h-1.47
		c0.01-0.44-0.11-0.79-0.37-1.04s-0.59-0.38-1-0.38c-0.43,0-0.78,0.12-1.05,0.36c-0.26,0.24-0.4,0.55-0.4,0.93
		c0,0.32,0.09,0.64,0.27,0.94c0.18,0.3,0.48,0.68,0.9,1.12l3.37,3.39l0.29-0.45l1.1-1.85h1.59l-1.33,2.3
		c-0.18,0.32-0.4,0.66-0.65,1.02l2.54,2.54H273.43z M269.65,150.75c0.47-0.23,0.92-0.58,1.34-1.05l-3.32-3.34
		c-1.38,0.53-2.07,1.37-2.07,2.51c0,0.64,0.23,1.17,0.69,1.59c0.46,0.42,1.06,0.63,1.79,0.63
		C268.65,151.09,269.18,150.98,269.65,150.75z"/>
	<path fill="#FFFFFF" d="M293.32,141.56c0.9,0.46,1.59,1.12,2.07,1.97c0.48,0.85,0.72,1.86,0.72,3.01s-0.24,2.16-0.72,3.01
		c-0.48,0.85-1.17,1.5-2.07,1.94s-1.97,0.67-3.2,0.67h-3.52v-11.29h3.52C291.35,140.87,292.42,141.1,293.32,141.56z M293.45,149.79
		c0.77-0.77,1.15-1.86,1.15-3.25c0-1.4-0.39-2.5-1.16-3.29c-0.77-0.79-1.88-1.18-3.33-1.18h-2.04v8.88h2.04
		C291.58,150.94,292.69,150.56,293.45,149.79z"/>
	<path fill="#FFFFFF" d="M302.32,142.07v3.78h4.12v1.22h-4.12v3.89h4.6v1.22h-6.08v-11.31h6.08v1.21H302.32z"/>
	<path fill="#FFFFFF" d="M321.27,140.87l-4.26,11.29h-1.7l-4.26-11.29h1.57l3.55,9.74l3.55-9.74H321.27z"/>
	<path fill="#FFFFFF" d="M327.01,142.07v3.78h4.12v1.22h-4.12v3.89h4.6v1.22h-6.08v-11.31h6.08v1.21H327.01z"/>
	<path fill="#FFFFFF" d="M337.83,150.96h3.95v1.2h-5.43v-11.29h1.47V150.96z"/>
	<path fill="#FFFFFF" d="M347.71,151.54c-0.86-0.49-1.55-1.18-2.05-2.06c-0.5-0.88-0.75-1.87-0.75-2.97c0-1.1,0.25-2.09,0.75-2.97
		c0.5-0.88,1.19-1.57,2.05-2.06c0.86-0.49,1.82-0.74,2.87-0.74c1.06,0,2.02,0.25,2.88,0.74c0.86,0.49,1.54,1.17,2.04,2.05
		s0.75,1.87,0.75,2.98c0,1.11-0.25,2.11-0.75,2.98s-1.18,1.56-2.04,2.05c-0.86,0.49-1.83,0.74-2.88,0.74
		C349.53,152.27,348.57,152.03,347.71,151.54z M352.7,150.44c0.63-0.37,1.13-0.89,1.49-1.57c0.36-0.68,0.54-1.47,0.54-2.37
		c0-0.91-0.18-1.7-0.54-2.37c-0.36-0.67-0.86-1.2-1.48-1.56c-0.63-0.37-1.34-0.55-2.14-0.55c-0.8,0-1.51,0.18-2.14,0.55
		c-0.63,0.37-1.12,0.89-1.48,1.56c-0.36,0.68-0.54,1.47-0.54,2.37c0,0.9,0.18,1.69,0.54,2.37c0.36,0.68,0.86,1.2,1.49,1.57
		s1.34,0.55,2.13,0.55C351.36,150.99,352.07,150.81,352.7,150.44z"/>
	<path fill="#FFFFFF" d="M367.56,146.51c-0.64,0.62-1.62,0.93-2.94,0.93h-2.17v4.71h-1.47v-11.29h3.65c1.27,0,2.24,0.31,2.91,0.92
		c0.66,0.62,1,1.41,1,2.38C368.52,145.11,368.2,145.89,367.56,146.51z M366.43,145.69c0.39-0.36,0.58-0.86,0.58-1.52
		c0-1.39-0.8-2.09-2.4-2.09h-2.17v4.15h2.17C365.44,146.23,366.04,146.05,366.43,145.69z"/>
	<path fill="#FFFFFF" d="M384.35,140.95v11.21h-1.47v-8.36l-3.73,8.36h-1.04l-3.74-8.38v8.38h-1.47v-11.21h1.59l4.15,9.27l4.15-9.27
		H384.35z"/>
	<path fill="#FFFFFF" d="M391.16,142.07v3.78h4.12v1.22h-4.12v3.89h4.6v1.22h-6.08v-11.31h6.08v1.21H391.16z"/>
	<path fill="#FFFFFF" d="M409.38,152.16h-1.47l-5.93-8.99v8.99h-1.47v-11.31h1.47l5.93,8.98v-8.98h1.47V152.16z"/>
	<path fill="#FFFFFF" d="M421.38,140.87v1.2h-3.08v10.09h-1.47v-10.09h-3.09v-1.2H421.38z"/>
	<path fill="#FFFFFF" d="M441.61,144.14c-0.31-0.66-0.77-1.17-1.36-1.53s-1.29-0.54-2.07-0.54c-0.79,0-1.5,0.18-2.13,0.54
		s-1.13,0.88-1.49,1.56c-0.36,0.68-0.54,1.46-0.54,2.34c0,0.89,0.18,1.66,0.54,2.33c0.36,0.67,0.86,1.19,1.49,1.55
		s1.34,0.54,2.13,0.54c1.1,0,2.01-0.33,2.72-0.99c0.71-0.66,1.13-1.55,1.25-2.67h-4.5v-1.2h6.08v1.13
		c-0.09,0.93-0.38,1.78-0.88,2.55c-0.5,0.77-1.15,1.38-1.96,1.83c-0.81,0.45-1.71,0.67-2.71,0.67c-1.05,0-2-0.25-2.87-0.74
		c-0.86-0.49-1.55-1.17-2.05-2.05s-0.75-1.86-0.75-2.97c0-1.1,0.25-2.09,0.75-2.97c0.5-0.88,1.19-1.57,2.05-2.06
		c0.86-0.49,1.82-0.74,2.87-0.74c1.2,0,2.26,0.3,3.18,0.89c0.92,0.59,1.6,1.43,2.02,2.51H441.61z"/>
	<path fill="#FFFFFF" d="M454.39,152.16l-2.69-4.62h-1.78v4.62h-1.47v-11.29h3.65c0.85,0,1.57,0.15,2.16,0.44
		c0.59,0.29,1.03,0.69,1.32,1.18c0.29,0.5,0.44,1.06,0.44,1.7c0,0.78-0.22,1.46-0.67,2.06c-0.45,0.59-1.12,0.99-2.02,1.18l2.84,4.73
		H454.39z M449.92,146.36h2.17c0.8,0,1.4-0.2,1.8-0.59c0.4-0.39,0.6-0.92,0.6-1.58c0-0.67-0.2-1.19-0.59-1.56
		c-0.39-0.37-1-0.55-1.81-0.55h-2.17V146.36z"/>
	<path fill="#FFFFFF" d="M463.04,151.54c-0.86-0.49-1.55-1.18-2.05-2.06c-0.5-0.88-0.75-1.87-0.75-2.97c0-1.1,0.25-2.09,0.75-2.97
		c0.5-0.88,1.19-1.57,2.05-2.06c0.86-0.49,1.82-0.74,2.87-0.74c1.06,0,2.02,0.25,2.88,0.74c0.86,0.49,1.54,1.17,2.04,2.05
		s0.75,1.87,0.75,2.98c0,1.11-0.25,2.11-0.75,2.98s-1.18,1.56-2.04,2.05c-0.86,0.49-1.83,0.74-2.88,0.74
		C464.86,152.27,463.91,152.03,463.04,151.54z M468.04,150.44c0.63-0.37,1.13-0.89,1.49-1.57c0.36-0.68,0.54-1.47,0.54-2.37
		c0-0.91-0.18-1.7-0.54-2.37c-0.36-0.67-0.86-1.2-1.48-1.56c-0.63-0.37-1.34-0.55-2.14-0.55c-0.8,0-1.51,0.18-2.14,0.55
		c-0.63,0.37-1.12,0.89-1.48,1.56c-0.36,0.68-0.54,1.47-0.54,2.37c0,0.9,0.18,1.69,0.54,2.37c0.36,0.68,0.86,1.2,1.49,1.57
		s1.34,0.55,2.13,0.55C466.7,150.99,467.41,150.81,468.04,150.44z"/>
	<path fill="#FFFFFF" d="M477.74,140.87v7.15c0,1,0.25,1.75,0.74,2.24c0.49,0.49,1.17,0.73,2.05,0.73c0.86,0,1.54-0.24,2.03-0.73
		c0.49-0.49,0.74-1.23,0.74-2.24v-7.15h1.47V148c0,0.94-0.19,1.73-0.57,2.37c-0.38,0.64-0.89,1.12-1.53,1.43
		c-0.64,0.31-1.36,0.47-2.16,0.47c-0.8,0-1.52-0.16-2.16-0.47c-0.64-0.31-1.15-0.79-1.52-1.43c-0.37-0.64-0.56-1.43-0.56-2.37v-7.13
		H477.74z"/>
	<path fill="#FFFFFF" d="M496.64,146.51c-0.64,0.62-1.62,0.93-2.94,0.93h-2.17v4.71h-1.47v-11.29h3.65c1.27,0,2.24,0.31,2.91,0.92
		c0.66,0.62,1,1.41,1,2.38C497.61,145.11,497.28,145.89,496.64,146.51z M495.52,145.69c0.39-0.36,0.58-0.86,0.58-1.52
		c0-1.39-0.8-2.09-2.4-2.09h-2.17v4.15h2.17C494.52,146.23,495.13,146.05,495.52,145.69z"/>
</g>
<path fill="#FFFFFF" d="M376.78,60.22c9.79-10.95,13.7-10.95,24.11-0.86c-10.41-10.09-10.37-14,0.57-23.62
	c-10.94,9.62-14.85,9.62-25.01-1.17C386.62,45.36,386.57,49.27,376.78,60.22z"/>
<g>
	<path fill="#FFFFFF" d="M144.13,62.11V39.15h-22.15c0,0-6.25,11.81-12.5,23.62c-3.12,5.9-6.25,11.81,0.04,5.71
		c-10.97,14.96-12.53,17.91,3.24,3.09c-15.77,14.82-12.83,13.3,2.46,2.85c-6.45,5.9-0.56,2.86,5.34-0.17
		C132.34,68.18,144.13,62.11,144.13,62.11z"/>
	<polygon fill="#FFFFFF" points="67.51,146.34 64.88,151.44 111.08,151.44 108.45,146.34 	"/>
	<path fill="#FFFFFF" d="M64.74,120.77c19.33-21.62,27.06-21.62,47.61-1.7c-20.55-19.92-20.47-27.64,1.13-46.63
		c-21.59,18.99-29.32,18.99-49.39-2.31C84.16,91.43,84.08,99.16,64.74,120.77z"/>
	<path fill="#FFFFFF" d="M121.98,151.44h22.15v-21.32c0,0-11.73-6.37-23.46-12.74c-5.86-3.19-11.73-6.37-6.05-0.72
		c-14.47-10.43-17.4-12.02-2.52,2.76c-14.88-14.78-13.34-11.85-2.91,2.67c-5.78-5.75-2.69,0.1,0.41,5.95
		C115.79,139.74,121.98,151.44,121.98,151.44z"/>
	<polygon fill="#FFFFFF" points="139.25,75.39 138.8,116.33 144.13,119.15 144.13,72.95 	"/>
	<path fill="#FFFFFF" d="M72.4,137.27h31.16c0,0-1.72-3.27-4.01-7.63c-2.29-4.36-5.16-9.82-4.54-0.8
		c-5.21-17.74-6.93-21.01-6.23,0.73c-0.7-21.74-2.45-18.47-7.22-0.48c0.13-9.26-2.77-3.81-5.1,0.55
		C74.14,134,72.4,137.27,72.4,137.27z"/>
	<path fill="#FFFFFF" d="M31.83,128.48v22.96h22.15c0,0,6.25-11.81,12.49-23.62c3.12-5.9,6.25-11.81,0.22-5.31
		c10.72-15.36,12.28-18.31-2.87-2.52c15.15-15.79,12.2-14.27-3.08-3.3c6.44-6.42,0.55-3.38-5.34-0.35
		C43.62,122.41,31.83,128.48,31.83,128.48z"/>
	<path fill="#FFFFFF" d="M129.78,111.34l0.34-31.16c0,0-3.29,1.68-7.68,3.93c-4.39,2.25-9.87,5.05-0.86,4.86
		c-17.79,4.68-21.08,6.37,0.51,6.69c-21.59-0.33-18.33,1.45-0.7,6.65c-8.96-0.45-3.54,2.51,0.8,4.88S129.78,111.34,129.78,111.34z"
		/>
	<polygon fill="#FFFFFF" points="37.16,74.26 31.83,71.44 31.83,117.65 36.71,115.2 	"/>
	<path fill="#FFFFFF" d="M53.98,39.15H31.83v21.32c0,0,11.73,6.37,23.45,12.74c5.86,3.19,11.73,6.37,5.59,0.22
		c14.93,10.93,17.87,12.52,2.8-3c15.06,15.52,13.52,12.6,2.86-2.54c6.01,6.36,2.91,0.51-0.18-5.34
		C60.17,50.85,53.98,39.15,53.98,39.15z"/>
	<path fill="#FFFFFF" d="M103.56,53.32H72.4c0,0,1.74,3.27,4.06,7.63s5.22,9.82,5.01,0.28c4.86,18.27,6.6,21.54,7.33-0.5
		c-0.73,22.03,0.99,18.76,6.3,0.75c-0.72,9.29,2.14,3.83,4.44-0.53C101.84,56.59,103.56,53.32,103.56,53.32z"/>
	<path fill="#FFFFFF" d="M46.18,79.25l-0.34,31.16c0,0,3.29-1.71,7.68-3.98s9.87-5.12,0.31-4.66c18.34-5.01,21.63-6.71-0.6-6.86
		c22.22,0.15,18.97-1.61,0.7-6.89c9.6,0.6,4.18-2.33-0.16-4.67C49.43,81.01,46.18,79.25,46.18,79.25z"/>
	<polygon fill="#FFFFFF" points="108.45,44.25 111.08,39.15 64.88,39.15 67.51,44.25 	"/>
	<path fill="#FFFFFF" d="M112.1,119.42c-14.88-14.78-17.78-20.26,5.03-6.52c-22.81-13.74-25.33-13.74-4.78,6.18
		c-20.55-19.92-20.58-17.4-6.37,5.19C91.77,101.68,97.22,104.64,112.1,119.42z"/>
	<path fill="#FFFFFF" d="M113.48,72.44c-21.59,18.99-19.16,18.99,4.22,5.94c-23.39,13.05-20.72,8-4.94-6.82
		C96.99,86.39,91.91,89,107.22,66.85C91.91,89,91.88,91.43,113.48,72.44z"/>
	<path fill="#FFFFFF" d="M63.82,119.99c15.15-15.79,20.23-18.4,7.02,5.16c13.21-23.56,13.23-26-6.1-4.38
		c19.33-21.62,16.9-21.62-5.71-6.56C81.64,99.16,78.97,104.21,63.82,119.99z"/>
	<path fill="#FFFFFF" d="M63.68,70.43c15.06,15.52,17.96,21-5.29,6.66c23.25,14.34,25.78,14.34,5.7-6.96
		c20.08,21.3,20.1,18.78,6.83-5.03C84.19,88.91,78.74,85.96,63.68,70.43z"/>
</g>
</svg>
